<svg xmlns="http://www.w3.org/2000/svg" viewBox="0 0 255.4 350.61"><defs><style>.cls-1{fill:#9e374b;}.cls-2{fill:#c75c70;}.cls-3{fill:#ba4158;}.cls-4{fill:#db657b;}</style></defs><title>firebase_logo</title><g id="Layer_2" data-name="Layer 2"><g id="Layer_1-2" data-name="Layer 1"><path class="cls-1" d="M0,283l2.12-3L102.53,89.51l.21-2L58.48,4.36A8.22,8.22,0,0,0,43.11,7Z"/><path class="cls-2" d="M135,150.38l33-33.75L135,53.7a8.5,8.5,0,0,0-15,0L102.42,87.29v2.86Z"/><polygon class="cls-3" points="0 283 0.96 282.03 4.46 280.61 132.94 152.61 134.56 148.18 102.51 87.11 0 283"/><path class="cls-4" d="M139.12,347.55,255.4,282.7,222.19,78.21a8,8,0,0,0-13.47-4.34L0,283l115.61,64.55a24.13,24.13,0,0,0,23.51,0"/></g></g></svg>