<svg xmlns="http://www.w3.org/2000/svg" viewBox="0 0 424.87 170.53"><defs><style>.cls-1{fill:#f96067;}.cls-2{fill:#616161;}</style></defs><title>flask_logo</title><g id="Layer_2" data-name="Layer 2"><g id="svg2"><path id="path2900" class="cls-1" d="M57.12,151.85c-7.28-5.73-15-11.22-20.35-19a153.72,153.72,0,0,1-25.65-46C7.56,76.09,6.35,64.52,1.76,54.15-3,46.62,2.59,38.38,10.84,36c3.67-.71,10.13-4.17,2.33-1.69-7,5.12-7.66-4.66-.5-5.28,4.9-.65,6.7-4.65,5-8.26-5.25-3.42,12.74-7.19,3.69-12.3C12-1.71,34.57-3.67,29,7.88c-1.34,8.89,15.8-1.62,11.82,8.63,4,4.93,15.14,1.12,14.86,8,5.89.41,7.91,5.36,13.43,5.74,5.73,2.59,16.11,4.63,18.06,11.08-5.68,4.5-18.84-9.29-19.47,3.16,1.72,18.4,1.28,37.35,8,54.87,3.18,10.61,10.9,19,17.87,27.22,6.67,8.09,15.7,13.78,24.91,18.58a102.39,102.39,0,0,0,25.59,7.92c3.57-2.73,9.87-12.88,15.44-8.6.26,4.81-11.06,10.05-.53,9.52,6.17-1.86,10.46,4.78,15.55-1.21,4.68,5.55,19.48-3.55,16.14,7.8-4.51,2.91-11.08,1.15-15.6,5.15-7.45-3.72-13.38,3.33-21.62,2.44a159.46,159.46,0,0,1-27.76,2.32c-15.23-1.21-30.78-1.71-45.27-7-8.16-2.38-16.12-7-23.3-11.67ZM70,157.42c8,3.45,15.76,7.08,24.49,8.17,13.86,1.93,28.17,4.9,42.08,2.19-6.3-2.84-12.81,1.11-19.08-2-7.52,1.62-15.59-.41-23.23-1.41-8.69-3.87-18.08-6.54-26.22-11.56-10.17-3.72,5.26,4.76,8,5.45,6.36,3.61-7-1.85-8.88-3.35-5.32-3-6-2.37-.52.67,1.1.64,2.19,1.32,3.35,1.87ZM54.82,146.7c7.72,2.86,0-5.43-3.57-4.95-1.57-2.72-6-4.43-2.87-5.9-5.61,2-5.88-7.4-8.52-6.07-5.93-1.87-2.31-8.51-9.38-12.59-.65-4.3-7-8-9.06-14.51-.9-3.31-7.21-12.84-3.33-4,3.3,8.53,9.1,15.84,13.94,23.15,3.75,7,8.18,14.22,15,18.55,2.3,2.21,4.53,5.6,7.78,6.29Zm34,14.37c3.17,2,18.47,4.37,8.89.81C96.13,162.22,80,157.31,88.84,161.07Zm-35-28.39c3.71,2.85,15,.37,5.69-1.7-4.23-2.25-13.75-3.79-7.26,1.36l1.57.34Zm18,9.52c9.07,2.57-7.63-5.74-2.24-.94l1.2.54,1,.4Zm15.72,9.09c8.6.08-7.76-1.19,0,0Zm-15.64-13.9c6.59.85-7.85-4.48-1.45-.48l1.45.48Zm22.91,14.09c6.15-3.68,4.13,8.62,10.44,1,6.23-4.55-5.38,5.62,2.3.81,5.55-3.71,13.76,1.76,18.94,3.55,3.73-.19,7.35,3.22,11.17,1.15,7.35-2-14.38-2.94-8.69-6.45-6.72,1.95-11.7-2.34-15-6.65-7.55-1.74-16.27-5.6-20-12.28-1.54-2.51,2.22.35-1.33-3.75-4.54-4-6.82-8.64-9.87-13.55-3.65-1.95-4.07-7.68-4.44-.19,0-4.73-4.4-7.9-5.49-6.58,0-4.55,4.75-2.27,1.41-5.64-.71-4.71-3.08-9.62-3.79-14.94-1.1-2.57-.15-8.06-3.76-2.25-1.32,6.13-.44-7.54,1.61-3,2.68-4.61-1-4.07-1.12-3.43,1.75-3.88,1.11-9.39-.45-7.29.93-4.11,1.47-15.14-1.4-13.19,1.74-4.3,3.3-19.69-4.25-13.83a32.4,32.4,0,0,0-10.86,2.36c7.85,4.33-.79,1.56-4,.88-.42,4-3.58,2.27-7.54,2.31C45,51.31,35.62,57,32,54.78c-4.7,2.25,4.07,7.86.1,9.6.49,2.61-7.21-.95-6.6,5.1-4.57-1.93-.63,7.16,1.65,4.09,7.77,2.1,5.47,6.9,5.67,11.45-1.27,2.65-6.25-6.24-1.11-5.83-4.06-6.58-4.49-2.38-7.86.68-.78.23,8.6,4.36,2.71,6.4,5.18.8,5.33,5.33,6.38,8.2,3.11,3.24,2.48-3.58,6.2.31C36.77,91.31,26.65,85,34.8,87c0-3.5-1.47-6.31,1-6.24,2.48-4.48-2.59,11,3,5.35,1.54-.68,1.93-4.49,4.7.36,4,4,1.45,6.83-4.23,3.2,1,3.45,7.6,4.69,6.37,10.08,1.31,4.75,3.14,3,4.74,2.72,1.26,4.61,2,1.22,2-1,5.75,1.23,4.4,4.63,6.2,7,4,1.79-5.67-12.12,1.13-4.18,7.16,6.46,2.68,9.15-3.73,8.12,4.06-.33,5.37,5.49,10.45,5.29,4.64,2.2,7.77,10.67-.22,7.15-2.77-2.5-12.57-5.58-4.56-.83,7.39,3.42,13.27,5.47,20.4,9.77,5.11,3.65,7.31,7.82,9.25,8.65-4.29,2.05-12.93-1.64-6.52-2.77-4-.73-8.5-2.75-4.67,2.23,3.26,2.73,11.55,2.44,13,2.75-1.26,2.77-3.42,3,0,3.21-3.88,2.06,1.24,2.38,1.6,3.56Zm-7.92-22.37c-2.36-2.46-3-7.08-.42-3.06,1.31.52,4.18,7.54.42,3.06ZM71.81,104.23c-2.81-6.29,2-3.43.62,1l-.62-1ZM46,87c-1.26-2.06-3.33-8.12-2.67-10,.61,3,6.41,13,2.85,4.12-3.93-7.41,4.7,2.41,5.59,4.26.41,1.83-2.43-.51-.5,3.8C47.72,84.3,49.15,91.91,46,87Zm-13-11c-3-3-5.13-5.68.13-1.83,2,.08-4.5-6.2.49-2C38.8,73.16,36.14,80.82,32.92,76ZM34.7,71.5c-8.65-7.69,10.86,4,1.41,1.43L34.7,71.5ZM59.48,85.9c-3.75-2.24-1-15.8.28-6.53,3.64-1.18-.2,4.79,2.51,4.73C61.84,87.87,60.63,89.22,59.48,85.9ZM36.39,69c-5.55-7.66,16.15,7.76,3.56,2C38.64,70.57,37.05,70.45,36.39,69ZM54,78.33c-.52-6.45,1.18,1.07,0,0ZM37.24,66.05c3.31-.71,13.69,5.8,4.15,1.86C40.33,66.73,38.08,67.27,37.24,66.05ZM65.6,80.18c.35-6.6,2-3.94,0,.95v-.95ZM39.7,63.75c1.35-2-3.57-8.92.71-2.49,1.85,1.47,5.36,2.46,2.26,3.08C47.54,68.63,41.48,65.5,39.7,63.75Zm19,.53c-.42-2.55,1.42,3.2,0,0Zm2.49-4.06c-1.71-3,2.17-13.34,2.61-6.94-1.82,5-.53,7.76.74,1.08,2.33-5.26-.51,10.38-3.35,5.86Zm7.12,73.67c4.92,1.26,4.89-.76.45-1.36-2.39-2.23-9.93-4.58-3.18-.28.45,1.13,1.86,1.11,2.73,1.64ZM50.89,122.3c2.71,2,10.2,5.72,3.86.77,2.13-2.49-4.1-3.81-2-5.47-5.26-3.22-4.15-2.93-.46-2.83-6.32-2.82.91-2.61.57-4.06-2.44-.48-12.11-4.3-6.42.31-5.78-3-1.38,1.1-3.12.67-5.92-1.61,5.26,4.5-.94,3,3.39,2.68,9.13,6.88,1.43,2.84-1,1.46,5.51,3.67,7.11,4.78Zm61.42,36c2.59-2.51.11,4,4.3-.61,0-3.31-.13-5.26-4.82-1.25-1.29.72-1.87,3.77.52,1.86ZM69.85,131.06c2.88,2.56,13.25,1.88,3.5.31C71.91,129.24,64.19,129.75,69.85,131.06Zm49.86,29.75c4.91-5.21-4.77.31,0,0ZM22.34,99.15c-4.19-6-2.61-8.67-6.65-13.55-.76-3.73-6.93-12.2-3.19-3.23C15.93,87.62,17,95.74,22.34,99.15ZM123.63,160c4.38-2.82-1-2.39-.8.26l.8-.26Zm7,1.92c5.62-4.06-3.4-.78-1.17.76l1.17-.76ZM36.39,101.84c4.12.92,16.46,10.14,9.18.64-3.73-1.11-1.49-10.22-5.3-8.61,2.56,4.27,2.1,6.08-3.26,3.39-6.73-3.28-3.78,1.63-2.47,3-1.79.41,2.38,1.56,1.85,1.59ZM17.62,87c.74-3-6.79-16.78-3.55-6.88C15.24,82.22,15.12,86.15,17.62,87Zm84.93,51c-.86-2.2-3.41-.05,0,0Zm43.93,20.15c4.08-.83,13.37,2.07,14.87-1.08-4.95-.12-17.13-3.49-17.7.8l1.08.17,1.75.11ZM19.5,69.5c4.11-1.62-7.48-3.34-.84-.31ZM6.67,55.14C5.92,50.88,6,43.4,13.13,45.93c-9.48,1.88,6.57,11.79,4.54,4,4,.19,7.8-2.36,5.71,1.51,7.86-.86,13.31-7.68,20.9-6.72,5.91-.79,12.38-1.38,18.75-3.76,5.24-.38,10.28-6,7.41-9.36-7.15-.61-14.62.29-22.52,1.86-8.75,1.82-16.7,5.27-25.53,6.76-8.61,1.15,1.73,3.18-.73,3.63-4.49,1.56,5.35,2.61-.59,4.25-3.66-.69-7.48-2-5.91-5.82-8.25,1.07-15.49,4.49-9,12.88ZM26.53,45c1.93-7.12,10.36,5.86,3.17.95A4.47,4.47,0,0,0,26.53,45Zm3.92-3.4c.25-3.27,8.11,1.74,1.29,1.18l-1.29-1.18Zm6.08-2.77c2.95-3.54,16.69-2.26,6.63-.35C40.47,36.47,38.4,39.7,36.53,38.85Zm23-2.8c1.86-4.87,7.22-1.95.86-1C60.55,35.59,60.23,37.59,59.55,36.05ZM18.49,61.9c5.56-3.4-5.9-2.95,0,0Zm160.69,96.31c4.44,0,13.45-1.38,3.79-1.37-1.51.23-8.83.18-3.79,1.37Zm-153-97.16c3.6-.25,5.63-4-.69-3.75-9.79-1,8.64,3.35-1.26,2.1C22.93,60.28,26.14,61.29,26.21,61.05Zm-5-28.39C27.6,30.48,36.37,28,39.39,33.74c-3.08-3.71-1.24-7.36,1.67-1.94,4.12,5.49,6.18-2.5,3.5-4.34,3,3.79,6.52,5.59,2,.24,4.87-5.85-9.74.77-13.06.7C31.94,29.12,17.05,32.2,21.18,32.66Zm3.76-7.19c3.66-2.77,12.65,1.64,6.88-2.75C31.26,22.22,19.18,26.05,24.94,25.47ZM38.27,26c4.29.1-1.84-5.75,3.26-3.1-.84-2.74-5.94-3.25-8.43-4.34C31.69,21.08,36,26.05,38.27,26Zm-5.54-10.8c6.9-.92-1.76-3-1.39-.08l1.39.08Zm-10.18-8C17.7.91,31.69,8.32,26.75,1.68,22.6-1.63,18.61,5.4,22.55,7.25ZM84.88,40.83c2.23-3.95-9.19-5.33-1.5-1.4C84.09,39.66,83.93,41.1,84.88,40.83Z"/><g id="text3850"><path id="path2830" class="cls-2" d="M181,37.59q-1.2,4.71-1.48,15.82c0,1.45-.65,2.18-2,2.18a2.76,2.76,0,0,1-2.75-1.9,24.93,24.93,0,0,0-4-7.17,9.69,9.69,0,0,0-6-2.88q-4-.63-20-.63c-2.44,0-4,.25-4.78.77-.47.33-.7,1-.7,2.11V77.74c0,1.08.68,1.59,2,1.55q6.26-.08,18.14-.85a4.07,4.07,0,0,0,3.12-1.51q.81-1.23,1.59-6.36c.32-1.88,1.43-2.6,3.3-2.18,1.6.33,2.27,1,2,2.18q-2,9.56-1.27,24.89c0,1.22-.72,1.87-2.32,2-1.31.14-2.13-.57-2.46-2.11q-1.83-8.79-6.78-9.39a151.45,151.45,0,0,0-16.14-.6c-.84,0-1.26.31-1.26.92v31.64c0,2.34.86,3.94,2.6,4.78,1.36.7,4.29,1.34,8.79,1.9q3.44.34,3,3-.42,2.32-6.19,1.83-16.66-1.33-27.49.14c-2,.28-3-.54-3-2.46,0-1.22,1-1.92,3-2.11q6.89-.78,6.89-12.09V52.71c0-3.1-.55-5.47-1.65-7.14s-3.15-3.17-6.15-4.53q-2.82-1.27-2.11-3.45c.23-.89.61-1.38,1.12-1.48a12.12,12.12,0,0,1,3.73.29q4.43.69,20.88.7,19.41,0,33.54-.84,4.71-.28,4.71.77a2.15,2.15,0,0,1-.07.56Z"/><path id="path2832" class="cls-2" d="M226.73,127q0,2.81-3.16,2.46a139.3,139.3,0,0,0-24,.28c-1.92.19-3.1.14-3.55-.14s-.67-1.05-.67-2.32,1.28-2.07,3.84-2.85,3.83-3.08,3.83-6.92V53.83q0-5.69-1.65-8.36a10.74,10.74,0,0,0-5.8-4.15c-1.46-.52-2.18-1.24-2.18-2.18,0-1.41,1-2.46,3.16-3.17a44,44,0,0,0,9.91-4.78c2.82-1.68,4.6-2.53,5.35-2.53q2.6,0,2.6,3.59,0-.28-.28,7-.21,7-.14,13.71l.28,62.79q0,4.29,2.11,6.22c1.4,1.29,3.82,2.15,7.24,2.57C225.68,124.8,226.73,125.6,226.73,127Z"/><path id="path2834" class="cls-2" d="M290.86,122.25q0,1.47-5.38,4.46t-8.61,3A6.09,6.09,0,0,1,272,127c-1.41-1.78-2.4-2.67-3-2.67s-2.65,1-6.68,2.88a28,28,0,0,1-12.16,2.88,14.09,14.09,0,0,1-9.63-3.37,12.81,12.81,0,0,1-4.22-10.13q0-12.16,27.84-17.44,4.79-.9,4.85-3.86l.14-4.5q.42-11.53-10.19-11.53-3,0-5.73,5.41t-7.77,5.84q-5.77.55-5.77-4.86,0-3.37,8.58-7.87a37.31,37.31,0,0,1,17.3-4.71q14.26,0,14.13,13.57l-.28,29c-.05,3,1.24,4.57,3.87,4.57a23.56,23.56,0,0,0,3-.35c1.45-.24,2.3-.35,2.53-.35,1.36,0,2,.91,2,2.74Zm-21.66-16c.05-1.18-.22-2-.81-2.32a3.91,3.91,0,0,0-2.77-.22q-17,3-17,11t8.79,8.09a21.41,21.41,0,0,0,7.24-1.34q4.37-1.55,4.36-3.72Z"/><path id="path2836" class="cls-2" d="M343.31,113.88a14.16,14.16,0,0,1-5.73,11.85q-5.73,4.39-15.64,4.39a63.8,63.8,0,0,1-13.22-1.4q-5.7-1.27-6.61-2.32c-.38-.66-.56-3.87-.56-9.64,0-2.48.56-3.77,1.68-3.86s2.09.46,2.89,1.82q5.26,9.21,17,9.21,9.92,0,9.92-6.89A6.56,6.56,0,0,0,330.8,112q-2.46-2.33-9.57-5.41-10.26-4.57-13.71-8-3.72-3.66-3.72-9.84a13.73,13.73,0,0,1,5.83-11.81q5.42-4.08,14.49-4.08a54.71,54.71,0,0,1,10.4.91q5.07.92,5.28,2.25.56,3.94,2.32,11.39c.14.61-.52,1.1-2,1.48s-2.58.07-3.1-.77Q331.5,79,323,79q-9.63,0-9.63,6.18a6.62,6.62,0,0,0,2.6,5.49q2.32,1.75,10.9,5.48,9,3.87,12.23,7Q343.32,107.13,343.31,113.88Z"/><path id="path2838" class="cls-2" d="M424.87,126.54c0,1.64-1.1,2.5-3.3,2.6q-4.92.06-12.87.7c-2.62.52-4.5.19-5.62-1a146.31,146.31,0,0,1-18.85-25,1.86,1.86,0,0,0-1.61-1.13q-1.2,0-4.15,2.11a5.7,5.7,0,0,0-3.31,5.2c0,1.6,0,3.89.14,6.89s.85,5,2.25,5.91c1,.66,3.26,1.17,6.82,1.55,2.21.28,3.31,1.1,3.31,2.46,0,1.08-.18,1.74-.53,2a5.07,5.07,0,0,1-2.78.18q-7-.63-23.76.7c-2.81.23-4.34-.12-4.57-1a5.62,5.62,0,0,1-.14-1.41c0-1.45,1.43-2.56,4.29-3.31q3.87-1,3.86-9.07V53.41q0-5.76-1.12-8-1.55-2.9-6.47-4.5c-1.55-.52-2.32-1.25-2.32-2.18q0-2,3.31-3.17A44.3,44.3,0,0,0,367.5,30.7q3.87-2.53,4.78-2.53,2.88,0,2.88,3.66,0-.49-.07,7Q375,43.92,375,52.57l.14,44q0,1.83,1,1.83c.7,0,1.78-.61,3.23-1.83q5.83-4.56,14.35-12c1.12-1.17,1.68-2.11,1.68-2.81,0-1.27-1.89-2.16-5.69-2.67a2.33,2.33,0,0,1-2.32-2.75c.14-1.64,1-2.34,2.46-2.11a122.11,122.11,0,0,0,14.76.78q6.75.06,13.43.07c1.46,0,2.18.91,2.18,2.6s-1.14,2.46-3.44,2.6a26.1,26.1,0,0,0-10.2,2.46q-6.68,3-14.27,10.62a1.28,1.28,0,0,0-.56,1c0,.66.79,2.23,2.39,4.71q8.79,13.36,16.59,20.18,5,4.29,9.35,4.29a10.29,10.29,0,0,1,4,.46c.52.31.77,1.11.77,2.43Z"/></g></g></g></svg>