<svg xmlns="http://www.w3.org/2000/svg" viewBox="0 0 409.53 66.61"><defs><style>.cls-1{fill:#fff;}.cls-2{fill:#00ad9c;}</style></defs><title>fontter_logo_text_brand</title><g id="Layer_2" data-name="Layer 2"><g id="Layer_1-2" data-name="Layer 1"><polygon class="cls-1" points="26 21.11 19.5 14.61 13 21.11 6.5 27.61 0 34.1 6.5 40.6 13 47.1 19.5 53.6 32.5 66.61 39 60.1 26 47.1 19.5 40.6 13 34.1 19.5 27.61 26 21.11"/><polygon class="cls-1" points="26 8.11 39 21.11 26 34.1 32.5 40.6 45.5 27.61 58.5 40.6 65 34.1 32.5 1.6 26 8.11"/><rect class="cls-1" x="40.9" y="42.51" width="9.19" height="9.19" transform="translate(-19.98 45.97) rotate(-45)"/><path class="cls-2" d="M79.94,64.45V0h43.15V12.18H94.45V25.67h25.48V37.85H94.45v26.6Z"/><path class="cls-2" d="M177.22,39.9a31.68,31.68,0,0,1-1.68,10.55,23,23,0,0,1-4.83,8.19,21.86,21.86,0,0,1-7.58,5.25,25.33,25.33,0,0,1-9.91,1.86,25.08,25.08,0,0,1-9.81-1.86,21.86,21.86,0,0,1-7.58-5.25,24.09,24.09,0,0,1-4.93-8.19,30.21,30.21,0,0,1-1.76-10.55A29.16,29.16,0,0,1,131,29.39a23.82,23.82,0,0,1,5-8.09,22.57,22.57,0,0,1,7.63-5.21,24.51,24.51,0,0,1,9.62-1.86,24.77,24.77,0,0,1,9.72,1.86,22.07,22.07,0,0,1,7.58,5.21,23.63,23.63,0,0,1,4.93,8.09A29.83,29.83,0,0,1,177.22,39.9Zm-14.14,0q0-6.42-2.56-10.09a8.36,8.36,0,0,0-7.3-3.68,8.47,8.47,0,0,0-7.34,3.68q-2.61,3.68-2.61,10.09t2.61,10.18a8.4,8.4,0,0,0,7.34,3.77,8.3,8.3,0,0,0,7.3-3.77Q163.08,46.32,163.08,39.9Z"/><path class="cls-2" d="M187.91,17.21A76.05,76.05,0,0,1,197,15.3a74.7,74.7,0,0,1,11.71-.88A28.65,28.65,0,0,1,219.11,16a15.57,15.57,0,0,1,6.56,4.61,17.93,17.93,0,0,1,3.44,7.06,37.76,37.76,0,0,1,1,9.12V64.45H216.28V38.5q0-6.69-1.77-9.48t-6.6-2.79c-1,0-2,0-3.17.14s-2.1.2-3,.32V64.45H187.91Z"/><path class="cls-2" d="M242.22,3.35l13.86-2.23V15.53h16.65V27.06H256.08V44.27a13.69,13.69,0,0,0,1.53,7q1.54,2.61,6.19,2.61a26.32,26.32,0,0,0,4.6-.42,24.58,24.58,0,0,0,4.33-1.16l1.95,10.78a37.39,37.39,0,0,1-5.58,1.77,32.3,32.3,0,0,1-7.53.75,24.86,24.86,0,0,1-9.4-1.54,14.71,14.71,0,0,1-5.95-4.28,15.76,15.76,0,0,1-3.11-6.65,39.11,39.11,0,0,1-.89-8.65Z"/><path class="cls-2" d="M283.51,3.35l13.86-2.23V15.53H314V27.06H297.37V44.27a13.59,13.59,0,0,0,1.54,7q1.53,2.61,6.18,2.61a26.32,26.32,0,0,0,4.6-.42A24.35,24.35,0,0,0,314,52.27l2,10.78a37.39,37.39,0,0,1-5.58,1.77,32.3,32.3,0,0,1-7.53.75,24.9,24.9,0,0,1-9.4-1.54,14.71,14.71,0,0,1-5.95-4.28,15.88,15.88,0,0,1-3.11-6.65,39.11,39.11,0,0,1-.89-8.65Z"/><path class="cls-2" d="M321.09,40.36a29.75,29.75,0,0,1,2-11.39,24.33,24.33,0,0,1,5.25-8.14,21.85,21.85,0,0,1,7.49-4.93,23.55,23.55,0,0,1,8.69-1.67q10.43,0,16.46,6.37t6,18.74c0,.81,0,1.69-.09,2.65s-.13,1.81-.19,2.56H335.32a9.23,9.23,0,0,0,4,6.79q3.54,2.5,9.49,2.51a39.69,39.69,0,0,0,7.49-.7,28.68,28.68,0,0,0,6-1.72l1.86,11.25a19.4,19.4,0,0,1-3,1.12,39.62,39.62,0,0,1-4.14,1c-1.52.27-3.15.51-4.88.69a47.86,47.86,0,0,1-5.21.28,30.83,30.83,0,0,1-11.48-2,22.39,22.39,0,0,1-8.1-5.35,21.13,21.13,0,0,1-4.74-8A32,32,0,0,1,321.09,40.36Zm32.55-5.3a14.78,14.78,0,0,0-.61-3.44,8.62,8.62,0,0,0-1.58-3,8.32,8.32,0,0,0-2.7-2.13,8.73,8.73,0,0,0-4-.84,9.27,9.27,0,0,0-4,.79,8.19,8.19,0,0,0-2.79,2.09,9.46,9.46,0,0,0-1.72,3,18.79,18.79,0,0,0-.88,3.49Z"/><path class="cls-2" d="M407.2,27.81c-1.24-.31-2.69-.64-4.37-1a27,27,0,0,0-5.39-.51,26,26,0,0,0-3.12.23,19.82,19.82,0,0,0-2.74.51V64.45H377.72V18.14a83.84,83.84,0,0,1,8.79-2.47,51,51,0,0,1,11.3-1.16c.74,0,1.64,0,2.7.14s2.11.22,3.16.37,2.11.34,3.16.56a14.92,14.92,0,0,1,2.7.79Z"/></g></g></svg>