<svg xmlns="http://www.w3.org/2000/svg" viewBox="0 0 432.13 129.99"><defs><style>.cls-1{fill:#592d8d;}</style></defs><title>logo_moz_purple</title><g id="Layer_2" data-name="Layer 2"><g id="Layer_1-2" data-name="Layer 1"><path class="cls-1" d="M2.57,3.75A6.11,6.11,0,0,1,5.3,2.37,13.24,13.24,0,0,1,8,2.07H23a6.42,6.42,0,0,1,5.25,2.37,9.28,9.28,0,0,1,1.43,2.47c.36.92.71,1.88,1,2.86l2.08,8.69A30.36,30.36,0,0,1,44.06,6.22,40.17,40.17,0,0,1,54.2,1.83,49.37,49.37,0,0,1,68,.1,48.42,48.42,0,0,1,79.35,1.33a35.06,35.06,0,0,1,17,9.58A56.34,56.34,0,0,1,102.86,19a30.56,30.56,0,0,1,5.59-6.42,44.57,44.57,0,0,1,8.86-6.12A56.39,56.39,0,0,1,128.8,1.88,49.4,49.4,0,0,1,142.26.1,42.44,42.44,0,0,1,162,4.44a40.36,40.36,0,0,1,14,11.85,52.34,52.34,0,0,1,8.37,17.54,79.93,79.93,0,0,1,2.77,21.41v64.85a8.6,8.6,0,0,1-1.63,5.69q-1.64,1.93-5.2,1.93H157.41q-4.26,0-5.84-1.44c-1.06-1-1.58-2.82-1.58-5.59V55.24a22.94,22.94,0,0,0-1.34-7.92,20,20,0,0,0-3.71-6.38,16.59,16.59,0,0,0-5.8-4.26,18.29,18.29,0,0,0-7.57-1.53,17.48,17.48,0,0,0-7.13,1.48,19.06,19.06,0,0,0-5.94,4.11,19.9,19.9,0,0,0-4.11,6.33,21.27,21.27,0,0,0-1.53,8.17v64.85a8.6,8.6,0,0,1-1.63,5.69q-1.64,1.93-5.2,1.93H83.16q-4.26,0-5.84-1.44c-1.06-1-1.58-2.82-1.58-5.59V55.24a24.71,24.71,0,0,0-1.24-7.92,19.2,19.2,0,0,0-3.57-6.38,16.27,16.27,0,0,0-5.64-4.26,18.38,18.38,0,0,0-14.45-.1,19.84,19.84,0,0,0-6.14,4.06,22.8,22.8,0,0,0-4.56,6.29A20.92,20.92,0,0,0,38,55v65.34a9.34,9.34,0,0,1-.65,3.37,5.32,5.32,0,0,1-1.93,2.57A9.19,9.19,0,0,1,33,127.41a10.4,10.4,0,0,1-2.63.3H8q-4.26,0-6.14-2.08A8,8,0,0,1,0,120.09V9.38A7.28,7.28,0,0,1,.84,5.92,6.21,6.21,0,0,1,3.17,3.46Z"/><path class="cls-1" d="M195.23,64.94a65.48,65.48,0,0,1,2.32-17.52,64.28,64.28,0,0,1,16.64-28.66,62.23,62.23,0,0,1,13.11-10A66.22,66.22,0,0,1,260.37,0a64.57,64.57,0,0,1,45.88,18.76,65.17,65.17,0,0,1,13.86,20.59,64,64,0,0,1,5.1,25.59,65,65,0,0,1-2.32,17.48A66.12,66.12,0,0,1,316.35,98a63.8,63.8,0,0,1-10.1,13.12,64.45,64.45,0,0,1-13.11,10.1A64.82,64.82,0,0,1,260.37,130a66.11,66.11,0,0,1-17.47-2.28,63.83,63.83,0,0,1-28.71-16.58A63.8,63.8,0,0,1,204.09,98a65.71,65.71,0,0,1-6.54-15.59A65,65,0,0,1,195.23,64.94Zm36.13,0a36.2,36.2,0,0,0,2,12.23A29.41,29.41,0,0,0,239.13,87a27,27,0,0,0,9,6.58A28.29,28.29,0,0,0,260.07,96,27.11,27.11,0,0,0,271.7,93.6,26.07,26.07,0,0,0,280.51,87a29,29,0,0,0,5.55-9.85,39.21,39.21,0,0,0,0-24.3,31.23,31.23,0,0,0-5.55-10.1,25.93,25.93,0,0,0-20.44-9.41,27.29,27.29,0,0,0-11.93,2.53,26.83,26.83,0,0,0-9,6.88,31.65,31.65,0,0,0-5.74,10.1A36,36,0,0,0,231.36,64.94Z"/><path class="cls-1" d="M331.85,9.21A7.57,7.57,0,0,1,334,3.61a7.83,7.83,0,0,1,5.8-2.13h83.35a8.73,8.73,0,0,1,5.6,1.94,7,7,0,0,1,2.42,5.79V26.43a18.73,18.73,0,0,1-.14,2.08,5.08,5.08,0,0,1-1,2.38L375.41,95.63h48.9A8.17,8.17,0,0,1,430,97.56q2.13,1.93,2.13,6.09V119.2a9.09,9.09,0,0,1-.54,3A8.8,8.8,0,0,1,430,125a8.06,8.06,0,0,1-2.47,2,7,7,0,0,1-3.22.74H337a6.57,6.57,0,0,1-3-.74A10,10,0,0,1,331.4,125a8.76,8.76,0,0,1-1.78-2.73,7.94,7.94,0,0,1-.64-3.11V105.53a14.57,14.57,0,0,1,.24-2.67,6,6,0,0,1,1.44-2.67q6.63-7.34,13.91-15.89t14.7-17.38Q366.7,58.11,374,49.5t14-16H339.77a8.18,8.18,0,0,1-5.8-2c-1.42-1.32-2.12-3.4-2.12-6.23Z"/></g></g></svg>