<svg xmlns="http://www.w3.org/2000/svg" viewBox="0 0 456.12 151.21"><defs><style>.cls-1{fill:#f96067;}</style></defs><title>moz_logo_soft_green</title><g id="Layer_2" data-name="Layer 2"><g id="Layer_1-2" data-name="Layer 1"><path class="cls-1" d="M151.2,0V117.6a33.71,33.71,0,0,1-33.6,33.61V71.4l-42,52.29L33.6,71.4v79.81A33.71,33.71,0,0,1,0,117.6V0A33.93,33.93,0,0,1,25.83,12L75.6,72.24l49.56-59.85A33.41,33.41,0,0,1,151.2,0Z"/><path class="cls-1" d="M317.31,75.6A75.6,75.6,0,1,1,241.71,0,75.56,75.56,0,0,1,317.31,75.6Zm-33.6,0a42,42,0,1,0-42,42A42.12,42.12,0,0,0,283.71,75.6Zm-2.94-15.33a33.72,33.72,0,0,0-47.46,0L202.65,90.93a33.72,33.72,0,0,0,47.46,0Z"/><path class="cls-1" d="M388.29,117.6h67.62a33.57,33.57,0,0,1-33.6,33.61H330.12L398,33.81h-68A33.56,33.56,0,0,1,363.51.21h92.61Z"/></g></g></svg>