<?xml version="1.0" encoding="utf-8"?>
<!-- Generator: Adobe Illustrator 23.0.1, SVG Export Plug-In . SVG Version: 6.00 Build 0)  -->
<svg version="1.1" id="Layer_1" xmlns="http://www.w3.org/2000/svg" xmlns:xlink="http://www.w3.org/1999/xlink" x="0px" y="0px"
	 viewBox="0 0 456.1 151.2" style="enable-background:new 0 0 456.1 151.2;" xml:space="preserve">
<style type="text/css">
	.st0{fill:#FFFFFF;}
</style>
<title>moz_logo_soft_green</title>
<g>
	<g id="Layer_1-2">
		<path class="st0" d="M151.2,0v117.6c-0.1,18.5-15.1,33.5-33.6,33.6V71.4l-42,52.3l-42-52.3v79.8C15.1,151.1,0.1,136.1,0,117.6V0
			c10,0,19.4,4.4,25.8,12l49.8,60.2l49.6-59.8C131.5,4.5,141.1,0,151.2,0z"/>
		<path class="st0" d="M317.3,75.6c0,41.8-33.8,75.6-75.6,75.6s-75.6-33.8-75.6-75.6S200,0,241.7,0c0,0,0,0,0,0
			C283.4,0,317.3,33.8,317.3,75.6C317.3,75.5,317.3,75.6,317.3,75.6z M283.7,75.6c0-23.2-18.8-42-42-42s-42,18.8-42,42
			s18.8,42,42,42C264.9,117.5,283.6,98.8,283.7,75.6z M280.8,60.3c-13.1-13-34.3-13-47.5,0l-30.7,30.7c13.1,13,34.3,13,47.5,0
			L280.8,60.3z"/>
		<path class="st0" d="M388.3,117.6h67.6c0,18.5-15,33.6-33.5,33.6c0,0,0,0-0.1,0h-92.2L398,33.8h-68c0-18.5,15-33.6,33.5-33.6h92.6
			L388.3,117.6z"/>
	</g>
</g>
</svg>
