<svg xmlns="http://www.w3.org/2000/svg" viewBox="0 0 2452.12 921.32"><defs><style>.cls-1{fill:#616161;}</style></defs><title>pwa_log</title><g id="Layer_2" data-name="Layer 2"><g id="Layer_1-2" data-name="Layer 1"><path class="cls-1" d="M233.65,605h151.6q68.89,0,122.68-15.38L547.15,468.8,656.73,131a269.58,269.58,0,0,0-28.6-37.55Q543.76,0,381.17,0H0V921.32H233.65ZM434.32,212q33,33.18,33,88.85,0,56.07-29,88.94-31.79,36.53-117,36.53H233.65V178.77h88.26q79.45,0,112.42,33.19ZM1804.83,756.31l70.83-178.77h204.48l-97-271.17L2104.48,0l347.64,921.32H2195.74l-59.4-165Z"/></g></g></svg>