<svg xmlns="http://www.w3.org/2000/svg" viewBox="0 0 509.69 133.64"><defs><style>.cls-1{fill:#616161;}.cls-2{fill:#f96067;}</style></defs><title>python_logo</title><g id="Layer_2" data-name="Layer 2"><g id="Layer_1-2" data-name="Layer 1"><path id="path46" class="cls-1" d="M207.09,67.86q0-25.26-14.41-26a27.1,27.1,0,0,0-11.19,1.84c-2.9,1-4.85,2.06-5.87,3.1V87q9.21,5.79,16.36,5.37Q207.09,91.41,207.09,67.86Zm11.85.7q0,12.84-6.05,21.31a22.25,22.25,0,0,1-18.7,9.87q-9,.29-18.57-5.64v36.54L165.31,127V45.85a23,23,0,0,1,6.51-5.36Q181,35.12,194.18,35l.14.14q12-.15,18.54,9.87Q218.94,54.18,218.94,68.56Z"/><path id="path48" class="cls-1" d="M281.92,92.55q0,17.2-3.45,23.85T265.27,127a50.65,50.65,0,0,1-17.07,3.39l-1.7-6.49a82,82,0,0,0,13.12-2.54q7.49-2.53,10.3-7.76c1.52-2.82,2.26-8.23,2.26-16.22V94.67A53,53,0,0,1,250,99.46a20.36,20.36,0,0,1-13.4-4.79,16.32,16.32,0,0,1-6.49-13.26V38.52L240.43,35V78.16q0,6.91,4.46,10.65t11.56,3.6q7.1-.15,15.17-5.5V36.54h10.3v56Z"/><path id="path50" class="cls-1" d="M322.15,99.18c-1.23.1-2.36.14-3.39.14-5.83,0-10.38-1.38-13.63-4.17s-4.85-6.63-4.85-11.53V43h-7.06V36.54h7.06V19.32l10.29-3.66V36.54h11.58V43H310.57v40.3q0,5.81,3.11,8.21c1.78,1.32,4.61,2.08,8.47,2.27Z"/><path id="path52" class="cls-1" d="M384.55,98.33H374.24V58.55a18.82,18.82,0,0,0-2.83-10.44,10.3,10.3,0,0,0-9.07-4.94q-7.09,0-17.73,7.48V98.33H334.3V3.25L344.61,0V43.31a35.93,35.93,0,0,1,21.59-7.19,17.18,17.18,0,0,1,13.26,5.5,19.35,19.35,0,0,1,5.09,13.69v43Z"/><path id="path54" class="cls-1" d="M439.32,66.24q0-9.7-3.67-16Q431.29,42.46,422.1,42q-16.94,1-16.93,24.27,0,10.66,3.54,17.83,4.53,9.1,13.6,9Q439.32,93,439.32,66.24Zm11.29.07q0,13.81-7.06,23Q435.78,99.6,422.1,99.6T400.93,89.31q-6.92-9.18-6.91-23,0-13,7.47-21.88Q409.4,35,422.24,35t20.89,9.44Q450.62,53.34,450.61,66.31Z"/><path id="path56" class="cls-1" d="M509.69,98.33h-10.3v-42c0-4.62-1.39-8.21-4.17-10.81s-6.47-3.83-11.08-3.73a24.78,24.78,0,0,0-14,4.79V98.33H459.86v-53q8.91-6.48,16.38-8.46A49.83,49.83,0,0,1,488.66,35a31.79,31.79,0,0,1,6.91.71,19.84,19.84,0,0,1,9.88,5.22,13.8,13.8,0,0,1,4.24,10.16V98.33Z"/><path id="path1948" class="cls-2" d="M63.53,3.63A87.89,87.89,0,0,0,48.71,4.89C35.58,7.21,33.2,12.06,33.2,21V32.84h31v3.94H21.56c-9,0-16.91,5.41-19.38,15.72-2.84,11.82-3,19.19,0,31.52,2.21,9.19,7.47,15.73,16.49,15.73H29.33V85.58A19.71,19.71,0,0,1,48.71,66.31h31a15.62,15.62,0,0,0,15.5-15.76V21c0-8.4-7.09-14.72-15.5-16.12A95.89,95.89,0,0,0,63.53,3.63Zm-16.78,9.5a5.92,5.92,0,1,1-5.82,5.93A5.88,5.88,0,0,1,46.75,13.13Z"/><path id="path1950" class="cls-2" d="M99.06,36.78V50.55c0,10.68-9,19.66-19.37,19.66h-31A15.83,15.83,0,0,0,33.2,86v29.53c0,8.4,7.31,13.35,15.51,15.76a51.86,51.86,0,0,0,31,0c7.8-2.26,15.5-6.81,15.5-15.76V103.69h-31V99.75H110.7c9,0,12.38-6.29,15.51-15.73,3.24-9.71,3.1-19.06,0-31.52-2.23-9-6.48-15.72-15.51-15.72ZM81.64,111.57a5.91,5.91,0,1,1-5.82,5.89A5.85,5.85,0,0,1,81.64,111.57Z"/></g></g></svg>