<svg xmlns="http://www.w3.org/2000/svg" viewBox="0 0 1224 500"><defs><style>.cls-1,.cls-5{fill:#f2f2f2;}.cls-2,.cls-4{fill:#f96067;}.cls-3,.cls-6{fill:#616161;}.cls-4,.cls-5,.cls-6{fill-rule:evenodd;}</style></defs><title>slide1</title><g id="Layer_2" data-name="Layer 2"><g id="Layer_1-2" data-name="Layer 1"><rect class="cls-1" width="1224" height="500"/><g id="Layer_1-2-2" data-name="Layer 1-2"><path class="cls-2" d="M1097,480.33,1126.15,403h-19.31l-19.94,50-14.18-50h-14.85l-15.22,50-10.73-22.77-9.72,32,9.87,18.11h19l13.75-44.81L1078,480.33Z"/><path class="cls-3" d="M991.29,453.78h11.87a32.82,32.82,0,0,0,9.61-1.29l3.07-10.14,8.58-28.35a22.81,22.81,0,0,0-2.24-3.16q-6.6-7.84-19.33-7.84H973v77.33h18.29Zm15.72-33a10.56,10.56,0,0,1,2.58,7.46,11.43,11.43,0,0,1-2.27,7.47q-2.49,3.06-9.16,3.06h-6.87V418h6.92c4.14,0,7.08.93,8.8,2.79Zm107.31,45.69,5.54-15h16l-7.59-22.76,9.5-25.71L1165,480.33h-20.07l-4.66-13.85Z"/></g><g id="Layer_1-2-3" data-name="Layer 1-2"><g id="Page-1"><g id="bootstrap-seeklogo.com"><g id="Group-3"><path id="Fill-1" class="cls-4" d="M700.81,465a13,13,0,0,1-13,13h-52a13,13,0,0,1-13-13V413a13,13,0,0,1,13-13h52a13,13,0,0,1,13,13v52"/></g><path id="Fill-4" class="cls-5" d="M666.06,456a7.87,7.87,0,0,0,5.63-1.88,7,7,0,0,0,2-5.33,6.58,6.58,0,0,0-2-5.2,8,8,0,0,0-5.63-1.81H652V456M652,436h13a7,7,0,0,0,4.77-1.64,5.85,5.85,0,0,0,1.92-4.69c0-2.29-.58-3.91-1.72-4.84a7.74,7.74,0,0,0-5-1.4H652Zm-8,26.44V417h22.11q6.12,0,9.81,2.8c2.46,1.88,3.7,4.69,3.7,8.48a10.14,10.14,0,0,1-1.68,5.89,10.91,10.91,0,0,1-4.82,3.8V438a10,10,0,0,1,6.37,4,13.22,13.22,0,0,1,2.17,7.75,13,13,0,0,1-1,5,10,10,0,0,1-3,4,15.37,15.37,0,0,1-5.23,2.68,25.55,25.55,0,0,1-7.58,1"/><path id="Fill-5" class="cls-6" d="M722.69,451.9h9.11a21.41,21.41,0,0,0,3.3-.18,7.72,7.72,0,0,0,2.79-1,5.19,5.19,0,0,0,1.85-2,6.32,6.32,0,0,0,.73-3.07,6.09,6.09,0,0,0-1.05-3.56,5.54,5.54,0,0,0-2.91-2.12,18,18,0,0,0-5.35-.61h-8.47V451.9Zm0-16.9h7.92a17.82,17.82,0,0,0,4.62-.43,5.13,5.13,0,0,0,2.78-1.82,5.21,5.21,0,0,0,.94-3.2,5.91,5.91,0,0,0-.87-3.2,4.4,4.4,0,0,0-2.5-1.9,20.88,20.88,0,0,0-5.57-.51h-7.32V435Zm-4.84,21.21V419.62h13.73a17,17,0,0,1,6.73,1.11,8.67,8.67,0,0,1,4,3.41,9,9,0,0,1,1.43,4.83,8.18,8.18,0,0,1-1.27,4.43,9.1,9.1,0,0,1-3.84,3.35,9.52,9.52,0,0,1,5.11,3.32,8.92,8.92,0,0,1,1.79,5.54,10.65,10.65,0,0,1-1.09,4.77,9.29,9.29,0,0,1-2.68,3.41,11.2,11.2,0,0,1-4,1.81,24.44,24.44,0,0,1-5.9.61Z"/><path id="Fill-6" class="cls-6" d="M754.52,443q0,5.08,2.22,7.62a7.4,7.4,0,0,0,10.44.72,6.12,6.12,0,0,0,.72-.72c1.48-1.69,2.23-4.28,2.22-7.76q0-4.92-2.23-7.45a7.41,7.41,0,0,0-10.46-.69,7.49,7.49,0,0,0-.69.69q-2.22,2.52-2.22,7.61Zm-4.62,0q0-7.36,4.09-10.91a12.33,12.33,0,0,1,8.34-3,11.91,11.91,0,0,1,8.94,3.58q3.48,3.58,3.47,9.93a17.43,17.43,0,0,1-1.54,8,10.84,10.84,0,0,1-4.46,4.56,13,13,0,0,1-6.4,1.62,11.93,11.93,0,0,1-9-3.57Q749.9,449.69,749.9,443Z"/><path id="Fill-7" class="cls-6" d="M783,443q0,5.08,2.21,7.62a7.4,7.4,0,0,0,10.44.72,6.12,6.12,0,0,0,.72-.72q2.24-2.54,2.23-7.76,0-4.92-2.24-7.45a7.41,7.41,0,0,0-10.46-.69,7.49,7.49,0,0,0-.69.69Q783,437.88,783,443Zm-4.62,0q0-7.36,4.09-10.91a12.32,12.32,0,0,1,8.33-3,11.91,11.91,0,0,1,8.94,3.58q3.48,3.58,3.47,9.93a17.58,17.58,0,0,1-1.53,8,10.92,10.92,0,0,1-4.47,4.56,13,13,0,0,1-6.4,1.62,11.92,11.92,0,0,1-9-3.57Q778.34,449.69,778.34,443Z"/><path id="Fill-8" class="cls-6" d="M818.25,452.2l.65,4a16.28,16.28,0,0,1-3.41.39,7.63,7.63,0,0,1-3.79-.77,4.32,4.32,0,0,1-1.9-2,16.28,16.28,0,0,1-.55-5.31V433.2H806v-3.5h3.29v-6.56l4.48-2.69v9.25h4.52v3.5h-4.52v15.5a7.71,7.71,0,0,0,.24,2.47,1.86,1.86,0,0,0,.78.88,3.12,3.12,0,0,0,1.53.34,16.2,16.2,0,0,0,2-.18"/><path id="Fill-9" class="cls-6" d="M820.84,448.3l4.43-.7a6.18,6.18,0,0,0,2.08,4.09,7.24,7.24,0,0,0,4.77,1.43,7,7,0,0,0,4.6-1.27,3.76,3.76,0,0,0,1.5-3,2.76,2.76,0,0,0-1.33-2.39A20.39,20.39,0,0,0,832.3,445a41.65,41.65,0,0,1-6.86-2.16,6.53,6.53,0,0,1-3.88-6.07,6.85,6.85,0,0,1,.81-3.29,7.33,7.33,0,0,1,2.22-2.51,9.22,9.22,0,0,1,2.89-1.31,14.09,14.09,0,0,1,3.88-.54,15.62,15.62,0,0,1,5.5.88,7.43,7.43,0,0,1,3.48,2.44,9.67,9.67,0,0,1,1.55,4.09l-4.41.63a4.86,4.86,0,0,0-1.74-3.2,6.39,6.39,0,0,0-4.06-1.14,7.43,7.43,0,0,0-4.43,1,2.91,2.91,0,0,0-1.32,2.38,2.41,2.41,0,0,0,.55,1.57,3.93,3.93,0,0,0,1.7,1.2c.46.17,1.78.55,4,1.15a54.83,54.83,0,0,1,6.65,2.09,6.76,6.76,0,0,1,3,2.35,6.58,6.58,0,0,1,1.08,3.85,7.53,7.53,0,0,1-1.32,4.23,8.45,8.45,0,0,1-3.77,3.07,13.8,13.8,0,0,1-5.6,1.08c-3.44,0-6.07-.71-7.87-2.14a9.88,9.88,0,0,1-3.44-6.36"/><path id="Fill-10" class="cls-6" d="M858,452.2l.65,4a17,17,0,0,1-3.41.41,7.6,7.6,0,0,1-3.79-.78,4.28,4.28,0,0,1-1.9-2,16,16,0,0,1-.55-5.3V433.2h-3.3v-3.5H849v-6.56l4.48-2.69v9.25H858v3.5H853.5v15.5a7.71,7.71,0,0,0,.24,2.47,1.94,1.94,0,0,0,.77.88,3,3,0,0,0,1.54.34,16.2,16.2,0,0,0,2-.18"/><path id="Fill-11" class="cls-6" d="M862.36,456.21V429.7h4v4a11.09,11.09,0,0,1,2.86-3.72,5,5,0,0,1,2.88-.9,8.87,8.87,0,0,1,4.62,1.45l-1.55,4.17a6.42,6.42,0,0,0-3.3-1,4.23,4.23,0,0,0-2.64.89,4.78,4.78,0,0,0-1.67,2.46,17.21,17.21,0,0,0-.75,5.24v13.88h-4.5"/><path id="Fill-12" class="cls-6" d="M896.36,442.91a33.86,33.86,0,0,1-7.34,1.71,17.06,17.06,0,0,0-3.92.89,4,4,0,0,0-1.77,1.46,4,4,0,0,0,.74,5.12,6,6,0,0,0,4,1.2,9.31,9.31,0,0,0,4.62-1.14,7,7,0,0,0,3-3.11,10.87,10.87,0,0,0,.72-4.49Zm.38,10a16.88,16.88,0,0,1-4.81,3,13.7,13.7,0,0,1-4.95.87c-2.92,0-5.15-.71-6.72-2.13a7,7,0,0,1-2.34-5.45,7.38,7.38,0,0,1,3.2-6.14,11,11,0,0,1,3.23-1.47,31.82,31.82,0,0,1,4-.68,40.47,40.47,0,0,0,8-1.55c0-.62,0-1,0-1.17,0-1.83-.43-3.12-1.28-3.87a7.47,7.47,0,0,0-5.11-1.52,8,8,0,0,0-4.68,1.11,6.75,6.75,0,0,0-2.23,3.93l-4.4-.6a10.85,10.85,0,0,1,2-4.55,8.51,8.51,0,0,1,4-2.67,17.6,17.6,0,0,1,6-.94,15.86,15.86,0,0,1,5.51.8,7.37,7.37,0,0,1,3.12,2,7,7,0,0,1,1.4,3.07,26,26,0,0,1,.23,4.14v6a64.55,64.55,0,0,0,.28,7.93,10.1,10.1,0,0,0,1.14,3.18h-4.69a9.38,9.38,0,0,1-.9-3.27Z"/><path id="Fill-13" class="cls-6" d="M911.94,443.11q0,5.11,2.07,7.56a6.35,6.35,0,0,0,5,2.45,6.46,6.46,0,0,0,5.11-2.53c1.41-1.69,2.13-4.3,2.14-7.84q0-5.07-2.09-7.59a6.26,6.26,0,0,0-5-2.52,6.48,6.48,0,0,0-5.08,2.68q-2.21,2.69-2.21,7.8Zm-4.07,23.26V429.7H912v3.45a10.08,10.08,0,0,1,3.27-3,9,9,0,0,1,4.43-1,10.5,10.5,0,0,1,6,1.75,10.8,10.8,0,0,1,3.9,5,17.89,17.89,0,0,1,1.32,7,17.6,17.6,0,0,1-1.45,7.34,11.07,11.07,0,0,1-4.25,5,10.88,10.88,0,0,1-5.84,1.71,8.42,8.42,0,0,1-4-.94,9.22,9.22,0,0,1-2.94-2.39v12.9Z"/></g></g></g><g id="svg2"><path id="path2900" class="cls-2" d="M417,471c-3.31-2.6-6.82-5.1-9.25-8.63a69.81,69.81,0,0,1-11.66-20.91c-1.62-4.89-2.17-10.15-4.25-14.87-2.17-3.42.37-7.16,4.12-8.25,1.67-.32,4.61-1.89,1.06-.76-3.18,2.32-3.48-2.12-.23-2.4,2.23-.3,3.05-2.12,2.28-3.76-2.39-1.55,5.79-3.27,1.67-5.59-4.25-4.63,6-5.52,3.48-.27-.61,4,7.18-.73,5.37,3.93,1.82,2.24,6.88.5,6.75,3.63,2.68.19,3.6,2.44,6.11,2.61,2.6,1.18,7.32,2.11,8.21,5-2.58,2-8.57-4.23-8.85,1.43.78,8.37.58,17,3.63,24.94,1.45,4.83,5,8.64,8.13,12.38s7.13,6.26,11.32,8.44a46,46,0,0,0,11.63,3.6c1.62-1.24,4.49-5.85,7-3.91.12,2.19-5,4.57-.24,4.33,2.8-.84,4.75,2.17,7.07-.55,2.12,2.52,8.85-1.61,7.33,3.55-2.05,1.32-5,.52-7.09,2.34-3.38-1.69-6.08,1.51-9.82,1.11a72.14,72.14,0,0,1-12.62,1.05c-6.93-.55-14-.78-20.58-3.18A41.24,41.24,0,0,1,417,471Zm5.85,2.54c3.64,1.56,7.17,3.21,11.14,3.71,6.3.88,12.8,2.23,19.12,1-2.86-1.29-5.82.51-8.67-.9-3.42.73-7.09-.19-10.56-.65-4-1.75-8.22-3-11.92-5.25-4.62-1.69,2.39,2.16,3.64,2.48,2.89,1.64-3.18-.84-4-1.53-2.42-1.36-2.72-1.07-.23.31.5.29,1,.6,1.52.85Zm-6.9-4.88c3.51,1.3,0-2.47-1.62-2.25-.71-1.23-2.73-2-1.3-2.68-2.55.91-2.68-3.36-3.88-2.76-2.69-.85-1.05-3.87-4.26-5.72-.3-2-3.18-3.64-4.12-6.6-.41-1.5-3.28-5.83-1.51-1.81,1.5,3.87,4.13,7.2,6.33,10.52,1.71,3.18,3.72,6.46,6.82,8.43,1.05,1,2.06,2.55,3.54,2.86Zm15.46,6.53c1.44.91,8.39,2,4,.37-.72.16-8.05-2.07-4-.37Zm-15.91-12.9c1.69,1.3,6.82.17,2.59-.77-1.93-1-6.25-1.73-3.3.62Zm8.18,4.33c4.12,1.17-3.47-2.61-1-.43l.55.25.45.18Zm0-2.19c3,.39-3.57-2-.66-.22Zm10.41,6.41c2.8-1.68,1.88,3.91,4.75.45,2.83-2.07-2.45,2.55,1,.37,2.52-1.69,6.26.8,8.61,1.61,1.7-.08,3.34,1.47,5.08.52,3.34-.9-6.54-1.33-3.95-2.93-3.06.89-5.32-1.06-6.82-3-3.43-.79-7.4-2.55-9.09-5.58-.7-1.14,1,.16-.61-1.71-2.06-1.81-3.1-3.92-4.48-6.16-1.66-.88-1.85-3.49-2-.08,0-2.15-2-3.59-2.5-3,0-2.07,2.16-1,.65-2.57-.33-2.14-1.4-4.37-1.73-6.79-.5-1.17-.07-3.66-1.71-1-.6,2.79-.2-3.43.74-1.36,1.21-2.1-.46-1.85-.51-1.56.79-1.77.5-4.27-.21-3.32.42-1.86.67-6.88-.63-6,.79-2,1.5-9-1.94-6.29a14.92,14.92,0,0,0-4.93,1.07c3.57,2-.36.71-1.82.4-.19,1.82-1.63,1-3.43,1,2.87.36-1.39,3-3,1.94-2.14,1,1.85,3.57.05,4.36.22,1.19-3.28-.43-3,2.32-2.08-.87-.29,3.26.75,1.86,3.53,1,2.48,3.14,2.57,5.21-.57,1.2-2.84-2.84-.5-2.65-1.85-3-2-1.09-3.57.31-.36.1,3.91,2,1.23,2.9,2.35.37,2.42,2.43,2.9,3.73,1.41,1.47,1.13-1.63,2.82.14-1.08-1.57-5.68-4.44-2-3.53,0-1.59-.66-2.87.46-2.84,1.13-2-1.18,5,1.36,2.43.7-.31.88-2,2.14.17,1.82,1.81.66,3.1-1.92,1.45.45,1.57,3.45,2.13,2.89,4.58.6,2.16,1.43,1.37,2.16,1.24.57,2.09.9.55.9-.46,2.62.56,2,2.11,2.82,3.19,1.82.81-2.57-5.51.52-1.9,3.25,2.93,1.21,4.15-1.7,3.69,1.85-.15,2.44,2.49,4.75,2.4,2.11,1,3.53,4.85-.1,3.25-1.26-1.14-5.71-2.54-2.07-.38a87.33,87.33,0,0,1,9.27,4.44c2.32,1.66,3.32,3.56,4.21,3.94-1.95.93-5.88-.75-3-1.26-1.82-.33-3.86-1.25-2.12,1,1.48,1.24,5.25,1.11,5.91,1.25-.57,1.26-1.56,1.36,0,1.46-1.77.94.56,1.08.73,1.62Zm-3.6-10.17c-1.07-1.12-1.36-3.22-.19-1.39C430.91,459.53,432.21,462.72,430.5,460.69Zm-6.85-11.31c-1.28-2.86.91-1.56.28.45Zm-11.74-7.83c-.57-.94-1.51-3.69-1.21-4.55.28,1.36,2.91,5.91,1.3,1.87-1.79-3.36,2.13,1.1,2.54,1.94.18.83-1.11-.23-.23,1.73C412.7,440.32,413.35,443.78,411.91,441.55Zm-5.9-5c-1.37-1.37-2.34-2.59.05-.84.91,0-2-2.81.23-.9,2.35.45,1.14,3.93-.32,1.74Zm.77-2.05c-3.93-3.49,4.93,1.82.64.65ZM418,441.05c-1.7-1-.45-7.19.13-3,1.65-.54-.09,2.18,1.14,2.15C419.11,441.94,418.56,442.56,418,441.05Zm-10.49-7.69c-2.53-3.48,7.34,3.53,1.61.91C408.57,434.08,407.85,434,407.55,433.36Zm.38-1.34c1.51-.32,6.23,2.64,1.89.85C409.34,432.33,408.31,432.58,407.93,432Zm12.89,6.43c.16-3,.91-1.79,0,.43ZM409.05,431c.61-.91-1.62-4.06.32-1.13.84.66,2.44,1.11,1,1.4C412.61,433.2,409.86,431.77,409.05,431Zm9.77-1.61c-.78-1.36,1-6.06,1.19-3.15-.83,2.27-.25,3.53.33.49C421.4,424.32,420.11,431.43,418.82,429.37Zm3.24,33.49c2.23.57,2.22-.35.2-.62-1.09-1-4.51-2.08-1.45-.13C421,462.63,421.66,462.62,422.06,462.86Zm-7.92-5.27c1.23.91,4.63,2.6,1.75.35,1-1.13-1.86-1.73-.91-2.48-2.39-1.47-1.88-1.34-.21-1.29-2.87-1.28.42-1.19.26-1.85-1.11-.21-5.5-1.95-2.92.14-2.62-1.36-.62.5-1.41.31-2.69-.73,2.39,2-.43,1.36,1.54,1.22,4.15,3.13.65,1.29-.46.67,2.5,1.67,3.23,2.18ZM442.06,474c1.17-1.15.05,1.81,1.95-.28,0-1.51-.06-2.39-2.19-.57C441.23,473.44,441,474.82,442.06,474Zm-19.3-12.39c1.3,1.17,6,.86,1.59.14C423.69,460.75,420.18,461,422.76,461.57Zm-21.6-14.5c-1.9-2.73-1.19-3.94-3-6.16-.35-1.7-3.15-5.55-1.45-1.47C398.25,441.83,398.73,445.52,401.16,447.07Zm46,27.66c2-1.28-.45-1.09-.36.12Zm3.18.87c2.56-1.84-1.54-.35-.53.35Zm-42.83-27.31c1.87.42,7.48,4.61,4.17.29-1.7-.5-.68-4.64-2.41-3.91,1.16,1.94.95,2.76-1.48,1.54-3.06-1.49-1.72.74-1.12,1.36-.82.19,1.08.71.84.73ZM399,441.55c.34-1.37-3.08-7.63-1.61-3.13C397.93,439.37,397.88,441.16,399,441.55Zm58.58,32.34c1.85-.38,6.07.94,6.76-.49-2.25-.06-7.79-1.59-8.05.36l.49.08Zm-57.72-40.3c1.87-.73-3.4-1.52-.38-.14ZM394,427.06c-.34-1.93-.31-5.33,2.93-4.18-4.31.85,3,5.36,2.07,1.82,1.82.08,3.54-1.08,2.59.68,3.58-.39,6.05-3.49,9.5-3.05a38,38,0,0,0,8.53-1.71c2.38-.17,4.67-2.73,3.36-4.26a37.18,37.18,0,0,0-10.23.85c-4,.83-7.59,2.4-11.61,3.07s.79,1.45-.33,1.65c-2,.71,2.43,1.19-.27,1.93-1.66-.31-3.4-.9-2.68-2.64-3.75.49-7,2-4.09,5.85Zm9-4.6c.88-3.24,4.71,2.66,1.45.43A2,2,0,0,0,403.06,422.46Zm1.79-1.55c.11-1.49,3.68.79.58.54Zm2.76-1.26c1.34-1.61,7.59-1,3-.16-1.22-.91-2.16.56-3,.17Zm10.45-1.27c.85-2.22,3.29-.89.4-.46.07.26-.08,1.17-.39.47Zm54.39,55.53c2,0,6.11-.62,1.72-.62C473.49,473.4,470.16,473.37,472.45,473.91Zm-69.54-44.16c1.63-.11,2.55-1.82-.32-1.7-4.45-.46,3.93,1.52-.57.95-.59.4.87.86.9.75Zm-2.28-12.9c2.92-1,6.91-2.12,8.28.49-1.4-1.69-.56-3.35.76-.88,1.87,2.49,2.81-1.14,1.59-2,1.36,1.73,3,2.54.91.11,2.21-2.66-4.43.35-5.94.32-.71.33-7.47,1.73-5.6,1.94Zm1.71-3.27c1.67-1.26,5.75.74,3.13-1.25-.26-.23-5.75,1.51-3.13,1.25Zm6.06.24c2,0-.84-2.61,1.48-1.41-.38-1.25-2.7-1.48-3.83-2C405.41,411.58,407.37,413.84,408.4,413.82Zm-2.52-4.91c3.14-.42-.8-1.36-.63,0Zm-4.62-3.64c-2.21-2.86,4.15.51,1.9-2.51-1.88-1.5-3.7,1.7-1.9,2.54Zm28.33,15.29c1-1.8-4.18-2.42-.68-.64C429.23,420,429.16,420.68,429.59,420.56Z"/><g id="text3850"><path id="path2830" class="cls-3" d="M473.28,419.09a35.64,35.64,0,0,0-.67,7.19c0,.66-.3,1-.91,1a1.26,1.26,0,0,1-1.25-.86,11.47,11.47,0,0,0-1.82-3.26,4.38,4.38,0,0,0-2.73-1.31,82.09,82.09,0,0,0-9.09-.29,4.31,4.31,0,0,0-2.17.35c-.22.15-.32.46-.32,1v14.48c0,.49.31.72.91.7,1.9,0,4.64-.15,8.24-.38a1.84,1.84,0,0,0,1.42-.69,9,9,0,0,0,.72-2.89,1.09,1.09,0,0,1,1.5-1c.73.15,1,.45.91,1a46.7,46.7,0,0,0-.57,11.31c0,.56-.33.85-1.06.91s-1-.26-1.12-1q-.82-4-3.08-4.27a69.07,69.07,0,0,0-7.33-.27c-.39,0-.58.14-.58.42V455.6a2.18,2.18,0,0,0,1.18,2.17,14.49,14.49,0,0,0,4,.87c1,.1,1.5.55,1.36,1.36s-1.06,1-2.81.83a60.07,60.07,0,0,0-12.5.07c-.9.12-1.36-.25-1.36-1.12,0-.56.46-.87,1.36-1q3.14-.36,3.14-5.5V426a5.9,5.9,0,0,0-.75-3.25,6.47,6.47,0,0,0-2.8-2c-.85-.39-1.17-.91-1-1.57.11-.41.28-.63.51-.68a5.42,5.42,0,0,1,1.7.14,83.85,83.85,0,0,0,9.49.31q8.82,0,15.24-.38c1.43-.08,2.14,0,2.14.35a1.15,1.15,0,0,1,0,.26Z"/><path id="path2832" class="cls-3" d="M494.06,459.73c0,.85-.47,1.22-1.43,1.12a63.1,63.1,0,0,0-10.91.12,3.25,3.25,0,0,1-1.61-.06c-.21-.13-.31-.48-.31-1.05s.58-.95,1.75-1.3,1.74-1.4,1.74-3.15V426.47a7.43,7.43,0,0,0-.75-3.8,4.9,4.9,0,0,0-2.64-1.89q-1-.34-1-1c0-.64.45-1.12,1.44-1.44a19.87,19.87,0,0,0,4.5-2.17,7.38,7.38,0,0,1,2.43-1.15c.79,0,1.18.54,1.18,1.63,0-.09,0,1-.12,3.18s-.09,4.2-.07,6.23l.13,28.54a3.67,3.67,0,0,0,1,2.83,6,6,0,0,0,3.29,1.17C493.59,458.73,494.06,459.09,494.06,459.73Z"/><path id="path2834" class="cls-3" d="M523.21,457.57c0,.44-.81,1.12-2.44,2a8.9,8.9,0,0,1-3.91,1.36,2.79,2.79,0,0,1-2.22-1.23c-.64-.81-1.09-1.22-1.36-1.22a18.82,18.82,0,0,0-3,1.31,12.63,12.63,0,0,1-5.53,1.31,6.36,6.36,0,0,1-4.37-1.53,5.83,5.83,0,0,1-1.92-4.6q0-5.53,12.65-7.93c1.46-.27,2.19-.86,2.21-1.76l.06-2c.13-3.5-1.41-5.24-4.63-5.24-.91,0-1.78.82-2.6,2.46a4.3,4.3,0,0,1-3.54,2.65c-1.74.17-2.62-.57-2.62-2.21q0-1.53,3.9-3.57a17,17,0,0,1,7.86-2.15q6.49,0,6.43,6.17L518,454.56c0,1.37.56,2.08,1.76,2.08a10.3,10.3,0,0,0,1.36-.16c.66-.11,1-.16,1.15-.16.62,0,.91.42.91,1.25Zm-9.84-7.27c0-.54-.1-.91-.37-1.06a1.82,1.82,0,0,0-1.26-.1q-7.73,1.37-7.73,5c0,2.43,1.34,3.65,4,3.68a9.73,9.73,0,0,0,3.29-.61c1.33-.47,2-1,2-1.69Z"/><path id="path2836" class="cls-3" d="M547.06,453.76a6.44,6.44,0,0,1-2.61,5.39,11.44,11.44,0,0,1-7.11,2,29.64,29.64,0,0,1-6-.64,7.54,7.54,0,0,1-3-1.05,17.78,17.78,0,0,1-.26-4.39c0-1.12.26-1.71.77-1.75a1.36,1.36,0,0,1,1.31.83q2.39,4.19,7.73,4.18c3,0,4.51-1,4.51-3.13a3,3,0,0,0-1-2.29,16.17,16.17,0,0,0-4.35-2.46,22.31,22.31,0,0,1-6.23-3.64,6,6,0,0,1-1.69-4.47,6.24,6.24,0,0,1,2.65-5.37,10.7,10.7,0,0,1,6.58-1.85,25,25,0,0,1,4.73.41c1.54.28,2.34.62,2.4,1q.25,1.79,1,5.17c.07.28-.23.5-.9.68s-1.18,0-1.41-.35c-1.68-2.77-3.8-4.15-6.38-4.15q-4.37,0-4.37,2.81a3,3,0,0,0,1.18,2.49,30.58,30.58,0,0,0,5,2.5,19.58,19.58,0,0,1,5.56,3.18A6.36,6.36,0,0,1,547.06,453.76Z"/><path id="path2838" class="cls-3" d="M584.13,459.52c0,.74-.5,1.14-1.5,1.18-1.49,0-3.44.12-5.85.32a2.63,2.63,0,0,1-2.56-.46,66.7,66.7,0,0,1-8.56-11.36.83.83,0,0,0-.74-.51,4.25,4.25,0,0,0-1.88,1,2.6,2.6,0,0,0-1.51,2.36c0,.73,0,1.77.07,3.13s.38,2.27,1,2.69a8.23,8.23,0,0,0,3.1.7c1,.13,1.5.5,1.5,1.12s-.08.79-.24.91a2.35,2.35,0,0,1-1.26.08,74.3,74.3,0,0,0-10.8.32c-1.28.1-2,0-2.08-.45a2.35,2.35,0,0,1-.06-.65c0-.65.65-1.16,2-1.5s1.76-1.68,1.75-4.12v-28a9,9,0,0,0-.51-3.64,4.79,4.79,0,0,0-2.94-2q-1-.36-1-1c0-.61.5-1.09,1.5-1.45a20.27,20.27,0,0,0,4.57-2.2,6.86,6.86,0,0,1,2.17-1.15c.88,0,1.31.55,1.31,1.66q0-.23,0,3.18,0,2.31,0,6.25l.06,20c0,.55.16.83.46.83a2.92,2.92,0,0,0,1.47-.83c1.76-1.39,3.94-3.2,6.52-5.46a2.19,2.19,0,0,0,.76-1.28c0-.57-.86-1-2.58-1.21a1.06,1.06,0,0,1-1.08-1.05,1.5,1.5,0,0,1,0-.2c.07-.74.46-1.06,1.12-1a55.77,55.77,0,0,0,6.71.36l6.1,0c.67,0,1,.41,1,1.18s-.51,1.12-1.56,1.18a12.07,12.07,0,0,0-4.64,1.12,22.76,22.76,0,0,0-6.48,4.83.59.59,0,0,0-.26.45,6.21,6.21,0,0,0,1.09,2.14,45.55,45.55,0,0,0,7.54,9.18,6.76,6.76,0,0,0,4.25,2,4.69,4.69,0,0,1,1.82.2c.24.15.35.51.35,1.11Z"/></g></g><g id="Layer_1-2-4" data-name="Layer 1-2"><path id="path46" class="cls-3" d="M172.92,441.28q0-15.11-8.62-15.55a16.13,16.13,0,0,0-6.7,1.1,9.49,9.49,0,0,0-3.51,1.85v24.06q5.5,3.47,9.79,3.21Q172.93,455.38,172.92,441.28Zm7.09.42q0,7.69-3.62,12.76a13.34,13.34,0,0,1-11.19,5.9A19.84,19.84,0,0,1,154.09,457v21.86l-6.17-2.18V428.11a13.79,13.79,0,0,1,3.89-3.2,26.56,26.56,0,0,1,13.38-3.29l.09.08a12.31,12.31,0,0,1,11.09,5.91Q180,433.1,180,441.7Z"/><path id="path48" class="cls-3" d="M217.7,456.06q0,10.29-2.07,14.27t-7.89,6.34a30.09,30.09,0,0,1-10.22,2l-1-3.88a48.6,48.6,0,0,0,7.85-1.52q4.49-1.51,6.17-4.64c.91-1.69,1.35-4.93,1.35-9.71v-1.62a31.62,31.62,0,0,1-13.27,2.86,12.18,12.18,0,0,1-8-2.86,9.74,9.74,0,0,1-3.88-7.94V423.73l6.17-2.11v25.83a7.84,7.84,0,0,0,2.67,6.37,10.13,10.13,0,0,0,6.92,2.16,17.31,17.31,0,0,0,9.08-3.3V422.54h6.16v33.51Z"/><path id="path50" class="cls-3" d="M241.77,460c-.73.06-1.41.08-2,.08-3.48,0-6.21-.82-8.15-2.49a8.59,8.59,0,0,1-2.9-6.9V426.41h-4.23v-3.87h4.23v-10.3l6.15-2.19v12.49h6.93v3.87h-6.93v24.11q0,3.48,1.86,4.92a9.47,9.47,0,0,0,5.07,1.36Z"/><path id="path52" class="cls-3" d="M279.11,459.52h-6.17V435.71a11.26,11.26,0,0,0-1.69-6.24,6.16,6.16,0,0,0-5.43-3q-4.24,0-10.61,4.48v28.53H249v-56.9l6.17-1.94v25.91a21.57,21.57,0,0,1,12.92-4.3,10.31,10.31,0,0,1,7.94,3.29,11.58,11.58,0,0,1,3,8.19v25.74Z"/><path id="path54" class="cls-3" d="M311.89,440.32a18.76,18.76,0,0,0-2.2-9.58,9.24,9.24,0,0,0-8.11-4.93q-10.12.6-10.13,14.52A24,24,0,0,0,293.57,451q2.71,5.44,8.14,5.39Q311.9,456.33,311.89,440.32Zm6.76,0q0,8.26-4.23,13.76a15.19,15.19,0,0,1-12.84,6.16q-8.18,0-12.66-6.16-4.14-5.49-4.14-13.76a19.67,19.67,0,0,1,4.47-13.1,15.44,15.44,0,0,1,12.42-5.64,15.65,15.65,0,0,1,12.5,5.65,19.62,19.62,0,0,1,4.48,13.09Z"/><path id="path56" class="cls-3" d="M354,459.52h-6.16V434.39a8.41,8.41,0,0,0-2.5-6.47,9,9,0,0,0-6.63-2.24,14.82,14.82,0,0,0-8.38,2.87v31h-6.15V427.8a30.51,30.51,0,0,1,9.8-5.06,30.16,30.16,0,0,1,7.43-1.12,18.6,18.6,0,0,1,4.14.43,11.8,11.8,0,0,1,5.91,3.12,8.29,8.29,0,0,1,2.54,6.08Z"/><path id="path1948" class="cls-2" d="M87,402.85a52.75,52.75,0,0,0-8.87.75c-7.85,1.39-9.28,4.29-9.28,9.64v7.09H87.41v2.36H61.9c-5.39,0-10.12,3.23-11.6,9.4-1.7,7.08-1.79,11.49,0,18.87,1.32,5.49,4.47,9.41,9.87,9.41h6.38v-8.48a11.78,11.78,0,0,1,11.59-11.53H96.7a9.35,9.35,0,0,0,9.27-9.42h0V413.24c0-5-4.24-8.81-9.27-9.64A56.19,56.19,0,0,0,87,402.85Zm-10,5.68a3.55,3.55,0,1,1-3.48,3.61v-.06A3.52,3.52,0,0,1,77,408.53Z"/><path id="path1950" class="cls-2" d="M108.27,422.69v8.24a11.87,11.87,0,0,1-11.59,11.76H78.13a9.48,9.48,0,0,0-9.27,9.45v17.67c0,5,4.38,8,9.28,9.43a31.09,31.09,0,0,0,18.56,0c4.66-1.35,9.27-4.07,9.27-9.43v-7.08H87.42v-2.36h27.82c5.39,0,7.41-3.77,9.28-9.41,1.94-5.82,1.86-11.41,0-18.87-1.33-5.38-3.88-9.4-9.28-9.4ZM97.85,467.44A3.54,3.54,0,1,1,94.37,471V471a3.49,3.49,0,0,1,3.47-3.53Z"/></g><g id="Layer_1-2-5" data-name="Layer 1-2"><path class="cls-2" d="M519.2,147V264.6a33.7,33.7,0,0,1-33.6,33.61V218.4l-42,52.29-42-52.29v79.81A33.7,33.7,0,0,1,368,264.6V147a34,34,0,0,1,25.83,12l49.77,60.24,49.56-59.85A33.4,33.4,0,0,1,519.2,147Z"/><path class="cls-2" d="M685.31,222.6a75.6,75.6,0,1,1-75.6-75.6h0a75.56,75.56,0,0,1,75.6,75.52Zm-33.6,0a42,42,0,1,0-42,42A42,42,0,0,0,651.71,222.6Zm-2.94-15.33a33.72,33.72,0,0,0-47.46,0l-30.66,30.66a33.72,33.72,0,0,0,47.46,0Z"/><path class="cls-2" d="M756.29,264.6h67.62a33.57,33.57,0,0,1-33.53,33.61H698.12L766,180.81H698a33.56,33.56,0,0,1,33.51-33.6h92.61Z"/></g></g></g></svg>